<?xml version="1.0" encoding="UTF-8" standalone="no"?>
<svg
   xmlns:dc="http://purl.org/dc/elements/1.1/"
   xmlns:cc="http://creativecommons.org/ns#"
   xmlns:rdf="http://www.w3.org/1999/02/22-rdf-syntax-ns#"
   xmlns:svg="http://www.w3.org/2000/svg"
   xmlns="http://www.w3.org/2000/svg"
   width="500"
   height="210"
   viewBox="0 0 132.29166 55.562502"
   version="1.1"
   id="svg3070">
  <defs
     id="defs3064">
    <filter
       style="color-interpolation-filters:sRGB"
       id="filter3023"
       x="-0.022324832"
       width="1.0446497"
       y="-0.054953434"
       height="1.1099069">
      <feGaussianBlur
         stdDeviation="4.4649663"
         id="feGaussianBlur3025" />
    </filter>
  </defs>
  <metadata
     id="metadata3067">
    <rdf:RDF>
      <cc:Work
         rdf:about="">
        <dc:format>image/svg+xml</dc:format>
        <dc:type
           rdf:resource="http://purl.org/dc/dcmitype/StillImage" />
        <dc:title></dc:title>
      </cc:Work>
    </rdf:RDF>
  </metadata>
  <g
     id="layer1"
     transform="matrix(0.95725746,0,0,0.95725746,-22.138376,-38.793727)">
    <path
       id="path2632"
       style="opacity:1;fill:#000000;fill-opacity:1;fill-rule:evenodd;stroke-width:0.607628;filter:url(#filter3023)"
       d="m 138.78233,10.71592 15.99023,33.48828 15.99024,33.48828 15.99023,33.48633 15.99219,-33.48633 15.99023,-33.48828 31.98047,66.97461 31.98047,-66.97461 31.98242,66.97461 47.9707,-100.46289 H 330.66904 L 314.67881,44.2042 298.68858,10.71592 H 266.70615 L 250.71592,44.2042 234.72569,10.71592 H 202.74522 L 186.75303,44.2042 170.7628,10.71592 Z M 96.237401,125.11436 c -4.020855,0 -7.322885,1.19569 -9.916015,3.57617 -2.59301,2.38028 -3.88281,5.39477 -3.88281,9.04297 0,3.13396 0.79921,5.82566 2.39844,8.0625 1.58782,2.24879 4.02164,4.07854 7.27734,5.50195 l 5.962895,2.66602 c 2.547409,1.17224 4.442669,2.59636 5.699219,4.29492 1.26795,1.69852 1.89648,3.68388 1.89648,5.98047 0,2.82281 -0.90211,5.12036 -2.70703,6.89062 -1.81614,1.75846 -4.181179,2.64258 -7.105469,2.64258 -2.478825,0 -4.534545,-0.80142 -6.167965,-2.4043 -1.64501,-1.60281 -2.82127,-3.9584 -3.54102,-7.06836 l -5.28906,2.73829 c 0.92526,3.80385 2.68465,6.73552 5.28906,8.80468 2.61587,2.0694 5.84786,3.09766 9.708985,3.09766 4.740609,0 8.533059,-1.44727 11.400389,-4.33008 2.86719,-2.88257 4.30664,-6.68763 4.30664,-11.40039 0,-3.21752 -0.8115,-6.01659 -2.43359,-8.37305 -1.61069,-2.35629 -4.01997,-4.24454 -7.20703,-5.66797 l -7.001959,-3.23046 c -2.250505,-1.02879 -3.918145,-2.20133 -4.980465,-3.54102 -1.07389,-1.32775 -1.61133,-2.90634 -1.61133,-4.72461 0,-2.17683 0.69613,-3.95798 2.08984,-5.35742 1.39371,-1.39962 3.18748,-2.10547 5.380865,-2.10547 1.71336,0 3.25585,0.49014 4.615239,1.45898 1.35931,0.96886 2.59255,2.44027 3.67773,4.42579 l 4.82031,-3.21875 c -1.19948,-2.55966 -2.87822,-4.48509 -5.03711,-5.80078 -2.14766,-1.30393 -4.706699,-1.96094 -7.642579,-1.96094 z m 317.359369,0.0703 c -3.46114,0 -6.79601,0.68348 -10.00585,2.03516 -3.22137,1.35169 -6.05381,3.27736 -8.50977,5.77734 -2.50176,2.54774 -4.39918,5.45358 -5.7129,8.70703 -1.30216,3.26539 -1.95312,6.7225 -1.95312,10.39453 0,3.64823 0.65096,7.09253 1.95312,10.33399 1.31372,3.25344 3.21114,6.14953 5.7129,8.69726 2.47888,2.52392 5.32285,4.46027 8.52148,5.83594 3.20984,1.36344 6.53299,2.04688 9.99414,2.04688 3.46121,0 6.79845,-0.68344 10.03125,-2.04688 3.22134,-1.37567 6.07581,-3.31202 8.55469,-5.83594 2.47882,-2.52373 4.36341,-5.40671 5.65429,-8.66015 1.29069,-3.24159 1.94336,-6.69887 1.94336,-10.3711 0,-3.69603 -0.65267,-7.16424 -1.94336,-10.42969 -1.29088,-3.25357 -3.17547,-6.14795 -5.65429,-8.67187 -2.45603,-2.49998 -5.29998,-4.42565 -8.52149,-5.77734 -3.23258,-1.35168 -6.58032,-2.03516 -10.06445,-2.03516 z m -402.880851,1.01368 22.185547,51.70899 h 4.83789 l 22.10352,-51.70899 h -11.86524 l -12.65429,31.37696 -12.7168,-31.37696 z m 55.695317,0.13477 v 51.31445 h 5.82617 v -51.31445 z m 52.707024,0 v 31.9375 c 0,6.93767 1.57568,12.12937 4.72851,15.57422 3.16426,3.44489 7.9061,5.16797 14.2461,5.16797 6.35129,-1e-5 11.10334,-1.72308 14.26758,-5.16797 3.15285,-3.44485 4.72852,-8.63655 4.72852,-15.57422 v -31.9375 h -5.89453 v 31.9375 c 0,5.19136 -1.05079,8.99572 -3.16407,11.42383 -2.11345,2.42816 -5.41359,3.64843 -9.92578,3.64843 -4.51198,0 -7.81445,-1.22027 -9.92773,-3.64843 -2.11328,-2.42811 -3.16406,-6.23247 -3.16406,-11.42383 v -31.9375 z m 61.71874,0 -21.35937,51.31445 h 6.30664 l 15.88867,-39.83008 15.9707,39.83008 h 6.31641 L 182.5128,126.33311 Z m 29.48438,0 v 51.31445 h 24.33203 v -5.8125 h -18.50586 v -45.50195 z m 31.32227,0 v 51.31445 h 5.82618 v -51.31445 z m 16.64454,0 v 5.59961 h 22.35546 l -27.56446,45.71484 h 36.32617 v -5.8125 h -26.16015 l 27.26759,-45.50195 z m 54.48046,0 -21.35742,51.31445 h 6.30469 l 15.89062,-39.83008 15.96876,39.83008 h 6.31639 l -21.44531,-51.31445 z m 19.15235,0 v 5.81445 h 13.8457 v 45.5 h 5.89453 v -45.5 h 13.77539 v -5.81445 z m 40.08398,0 v 51.31445 h 5.82617 v -51.31445 z m 77.3125,0 v 51.31445 h 5.55274 l -0.0156,-38.48633 34.01367,38.48633 h 0.89646 0.95117 v -51.31445 h -5.55078 v 38.98242 L 451.0753,126.33311 h -0.83204 z m -35.72071,4.52148 c 2.69586,0 5.26736,0.52746 7.67773,1.58008 2.42163,1.05273 4.59267,2.58416 6.51173,4.59375 1.89629,1.98551 3.35834,4.26954 4.375,6.86523 1.01665,2.59549 1.51952,5.33446 1.51952,8.20508 0,2.84681 -0.50457,5.54992 -1.50976,8.09766 -1.00527,2.54786 -2.46573,4.82062 -4.38477,6.83008 -1.94191,2.03359 -4.12525,3.58772 -6.54687,4.65234 -2.41038,1.06454 -4.96959,1.5918 -7.64258,1.5918 -2.69581,0 -5.25343,-0.52552 -7.65234,-1.57813 -2.38742,-1.05255 -4.57032,-2.6086 -6.53516,-4.66601 -1.94189,-2.05722 -3.41447,-4.3415 -4.4082,-6.86524 -0.9938,-2.52393 -1.48633,-5.21569 -1.48633,-8.0625 0,-2.87062 0.50438,-5.59819 1.50976,-8.16992 1.00525,-2.57167 2.46574,-4.86694 4.38477,-6.90039 1.87346,-2.00959 4.022,-3.54102 6.45508,-4.59375 2.43306,-1.05262 5.0137,-1.58008 7.73242,-1.58008 z m -9.17383,55.17774 7.31642,19.68359 h 1.66991 l 3.82227,-11.38867 3.83985,11.38867 h 0.84765 0.82227 l 7.3125,-19.68164 h -4.11719 l -3.95898,11.46484 -3.92578,-11.46484 h -1.6836 l -3.89257,11.44922 -3.93165,-11.45117 z m 80.70313,0.0137 c -1.46628,0 -2.67156,0.43668 -3.61719,1.30469 -0.94553,0.86788 -1.41602,1.96652 -1.41602,3.29687 0,1.14283 0.29177,2.12374 0.875,2.93945 0.57904,0.81988 1.46713,1.48661 2.6543,2.00586 l 2.17383,0.97266 c 0.92894,0.4276 1.61992,0.94692 2.07812,1.56641 0.4624,0.61922 0.69141,1.3441 0.69141,2.18164 0,1.02917 -0.32796,1.86614 -0.98633,2.51172 -0.66214,0.64124 -1.52535,0.96484 -2.59179,0.96484 -0.90389,0 -1.65234,-0.29234 -2.24804,-0.87695 -0.59968,-0.58445 -1.03058,-1.44394 -1.29298,-2.57813 l -1.92773,0.99805 c 0.33729,1.38711 0.97805,2.45641 1.92773,3.21093 0.95389,0.75454 2.13299,1.13086 3.54102,1.13086 1.72859,0 3.11264,-0.52877 4.15821,-1.58007 1.04543,-1.051 1.57031,-2.4376 1.57031,-4.15625 0,-1.17349 -0.29507,-2.19545 -0.88673,-3.05469 -0.58727,-0.85943 -1.46663,-1.54754 -2.62889,-2.06641 l -2.55469,-1.17773 c -0.82059,-0.37518 -1.42712,-0.80243 -1.81446,-1.29102 -0.39167,-0.48418 -0.5879,-1.05958 -0.5879,-1.72265 0,-0.79383 0.25356,-1.44466 0.76173,-1.95508 0.5083,-0.51042 1.16304,-0.76758 1.96289,-0.76758 0.62478,0 1.18593,0.17997 1.68164,0.5332 0.49588,0.35335 0.94608,0.88912 1.3418,1.61328 l 1.75781,-1.17382 c -0.43745,-0.93342 -1.04867,-1.6353 -1.83593,-2.11524 -0.78324,-0.47536 -1.71646,-0.71484 -2.78712,-0.71484 z m -45.60157,0.0254 c -1.26206,0 -2.47991,0.24936 -3.65039,0.74219 -1.17472,0.49294 -2.20603,1.19395 -3.10156,2.10546 -0.91243,0.92924 -1.60478,1.98944 -2.08398,3.17579 -0.47468,1.19077 -0.71289,2.45183 -0.71289,3.79101 0,1.33036 0.23821,2.58759 0.71289,3.76953 0.4792,1.18655 1.17155,2.24094 2.08398,3.16993 0.90395,0.92042 1.94095,1.6273 3.10742,2.1289 1.17048,0.49723 2.38247,0.7461 3.64453,0.7461 1.26225,0 2.47716,-0.24887 3.65625,-0.7461 1.17456,-0.5016 2.21704,-1.20847 3.1211,-2.1289 0.90388,-0.92035 1.59175,-1.97187 2.0625,-3.15821 0.47065,-1.18213 0.70703,-2.44207 0.70703,-3.78125 0,-1.34776 -0.23638,-2.61184 -0.70703,-3.80273 -0.47075,-1.18636 -1.15862,-2.24365 -2.0625,-3.16407 -0.89563,-0.91151 -1.93286,-1.61252 -3.10742,-2.10546 -1.17892,-0.49283 -2.39943,-0.74219 -3.66993,-0.74219 z m 13.0254,0.41992 v 18.71094 h 2.07422 v -8.92383 h 0.30078 l 6.52344,8.92383 h 2.69922 l -6.82422,-8.92383 h 0.37891 c 1.57885,0 2.77514,-0.39708 3.5957,-1.19531 0.81635,-0.79384 1.22461,-1.96307 1.22461,-3.49414 0,-0.88547 -0.1457,-1.69129 -0.44141,-2.41993 -0.29156,-0.72828 -0.6995,-1.31427 -1.22852,-1.74609 -0.42485,-0.34017 -0.91632,-0.57883 -1.47461,-0.72265 -0.55396,-0.13975 -1.43335,-0.20899 -2.62891,-0.20899 z m 13.37696,0 v 18.71094 h 2.09764 v -10.07031 l 8.05274,10.07031 h 2.74609 l -8.41992,-10.28906 7.66211,-8.42188 h -2.53711 l -7.50391,8.32227 v -8.32227 z m -26.40236,1.64844 c 0.98298,0 1.91992,0.19228 2.79884,0.57617 0.88303,0.3837 1.67514,0.94117 2.375,1.67383 0.69146,0.72425 1.22507,1.55724 1.5957,2.5039 0.37083,0.94647 0.55273,1.94544 0.55273,2.99219 0,1.03812 -0.18223,2.02407 -0.54883,2.95313 -0.36662,0.92919 -0.89988,1.75752 -1.5996,2.49023 -0.70829,0.74166 -1.5035,1.30916 -2.38673,1.69727 -0.87893,0.3885 -1.81232,0.58007 -2.78711,0.58007 -0.98297,1e-5 -1.91629,-0.19227 -2.79101,-0.57617 -0.87056,-0.38388 -1.66645,-0.95069 -2.38281,-1.70117 -0.70816,-0.75012 -1.24485,-1.58356 -1.60743,-2.5039 -0.3624,-0.92025 -0.54296,-1.90134 -0.54296,-2.93946 0,-1.04675 0.18417,-2.04068 0.55078,-2.97851 0.36662,-0.93783 0.8997,-1.77605 1.59961,-2.51758 0.68305,-0.73266 1.46632,-1.29013 2.35351,-1.67383 0.88726,-0.38389 1.8289,-0.57617 2.82031,-0.57617 z m 15.09961,0.23437 h 1.6211 c 1.62887,0 2.73343,0.24095 3.3125,0.72071 0.57901,0.48409 0.86523,1.32212 0.86523,2.52148 0,1.11678 -0.2794,1.89672 -0.84179,2.3418 -0.56239,0.44923 -1.67375,0.67187 -3.33594,0.67187 h -1.6211 z m -50.375,14.13672 a 1.4401454,1.5079985 0 1 0 1.44336,1.50781 1.4401454,1.5079985 0 0 0 -1.43945,-1.50781 1.4401454,1.5079985 0 0 0 -0.004,0 z"
       transform="matrix(0.26458333,0,0,0.26458333,25.890934,40.915489)" />
    <path
       d="m 69.949615,41.211071 h -8.461653 l 4.230828,8.860343 z"
       style="fill:#fc7746;fill-rule:evenodd;stroke-width:0.160768"
       id="path2710" />
    <path
       d="M 74.180459,50.071414 H 65.71879 l 4.230825,-8.860343 z"
       style="fill:#fa6b37;fill-rule:evenodd;stroke-width:0.160768"
       id="path2712" />
    <path
       d="M 74.180459,50.071414 H 65.71879 l 4.230825,8.860327 z"
       style="fill:#ff5d22;fill-rule:evenodd;stroke-width:0.160768"
       id="path2714" />
    <path
       d="m 78.411284,58.931743 h -8.461669 l 4.230844,-8.860329 z"
       style="fill:#ff4b08;fill-rule:evenodd;stroke-width:0.160768"
       id="path2716" />
    <path
       d="m 78.411284,58.931743 h -8.461669 l 4.230844,8.860343 z"
       style="fill:#ff5d22;fill-rule:evenodd;stroke-width:0.160768"
       id="path2718" />
    <path
       d="m 82.642104,50.071414 h -8.461645 l 4.230825,8.860329 z"
       style="fill:#ee4000;fill-rule:evenodd;stroke-width:0.160768"
       id="path2720" />
    <path
       d="m 82.642104,50.071414 h -8.461645 l 4.230825,-8.860343 z"
       style="fill:#d53900;fill-rule:evenodd;stroke-width:0.160768"
       id="path2722" />
    <path
       d="m 86.872953,41.211071 h -8.461669 l 4.23082,8.860343 z"
       style="fill:#e30016;fill-rule:evenodd;stroke-width:0.160768"
       id="path2724" />
    <path
       d="m 86.872953,41.211071 h -8.461669 l 12.692499,26.581013 8.461666,-17.720672 8.461651,17.720672 12.69249,-26.581015 h -8.46165 l -4.23084,8.860343 -4.23082,-8.860343 h -8.461675 l -4.230822,8.860343 z"
       style="fill:#3a3a3a;fill-rule:evenodd;stroke-width:0.160768"
       id="path2726" />
    <path
       d="m 86.872953,41.211071 h -8.461669 l 4.23082,8.860343 z"
       style="fill:#bb3200;fill-rule:evenodd;stroke-width:0.160768"
       id="path2728" />
    <path
       d="m 133.90291,90.62658 1.02952,-3.029312 h 0.44571 l 1.0386,3.033279 1.04751,-3.033279 h 1.08914 l -1.93472,5.20755 h -0.21738 -0.22451 l -1.01584,-3.013122 -1.01144,3.013122 h -0.44144 l -1.93611,-5.208159 h 1.09058 z"
       style="fill:#ff5d22;fill-rule:evenodd;stroke-width:0.160768"
       id="path2730" />
    <path
       d="m 141.05925,92.246711 c 0.25791,0 0.50481,-0.05074 0.73736,-0.153527 0.23368,-0.102687 0.44416,-0.252701 0.63156,-0.448931 0.18513,-0.193863 0.32622,-0.413123 0.42322,-0.658972 0.097,-0.245811 0.14545,-0.506629 0.14545,-0.781298 0,-0.276953 -0.0484,-0.541277 -0.14657,-0.791697 -0.0981,-0.250471 -0.23915,-0.47085 -0.4221,-0.662475 -0.18517,-0.193852 -0.39462,-0.341624 -0.62826,-0.443145 -0.23255,-0.101571 -0.48058,-0.152355 -0.74066,-0.152355 -0.26231,0 -0.51139,0.05078 -0.74615,0.152355 -0.23473,0.101521 -0.44199,0.249296 -0.62271,0.443145 -0.18519,0.196197 -0.32622,0.417796 -0.42323,0.66593 -0.097,0.248134 -0.1455,0.511289 -0.1455,0.788242 0,0.274669 0.0474,0.534365 0.14327,0.777848 0.0959,0.243509 0.23809,0.463955 0.42546,0.662424 0.18953,0.198565 0.40009,0.348581 0.63042,0.450149 0.23144,0.101571 0.47836,0.15231 0.73844,0.152307 z m 2.52617,-2.042728 c 0,0.354324 -0.0628,0.687842 -0.18738,1.000614 -0.12455,0.313886 -0.30639,0.592013 -0.54554,0.83552 -0.2392,0.24353 -0.51474,0.43048 -0.8255,0.563195 -0.31197,0.131558 -0.63378,0.197395 -0.96775,0.197395 -0.33392,0 -0.65466,-0.06584 -0.96435,-0.197395 -0.30863,-0.132715 -0.58306,-0.319667 -0.82223,-0.563195 -0.24141,-0.245795 -0.42432,-0.525084 -0.55111,-0.839026 -0.12559,-0.312721 -0.18848,-0.645117 -0.18848,-0.997108 0,-0.354325 0.0629,-0.687843 0.18848,-1.002901 0.12679,-0.313888 0.3097,-0.594336 0.55111,-0.840195 0.23694,-0.241173 0.5103,-0.427024 0.82111,-0.557448 0.30969,-0.130394 0.63155,-0.19618 0.96547,-0.19618 0.33616,0 0.65912,0.06579 0.97104,0.19618 0.31077,0.130424 0.58524,0.316275 0.82221,0.557448 0.23915,0.243525 0.42099,0.522819 0.54554,0.836711 0.12453,0.315089 0.18738,0.64979 0.18738,1.006385 z m 0.92032,2.465133 v -4.951058 h 1.11097 c 0.31632,0 0.54889,0.01847 0.69546,0.05544 0.14771,0.03805 0.27776,0.101521 0.39016,0.191524 0.13997,0.114252 0.24797,0.26893 0.32511,0.461621 0.0782,0.192786 0.11691,0.406278 0.11691,0.640559 0,0.405096 -0.1081,0.714378 -0.32409,0.924414 -0.21711,0.211199 -0.53343,0.31622 -0.95117,0.31622 h -0.1003 l 1.80536,2.361279 h -0.7142 l -1.72601,-2.361279 h -0.0794 v 2.361279 z m 0.54884,-4.452503 v 1.654974 h 0.42874 c 0.43978,0 0.73406,-0.05886 0.88286,-0.177721 0.14881,-0.117761 0.22263,-0.324287 0.22263,-0.619768 0,-0.317331 -0.0761,-0.538948 -0.22926,-0.66703 -0.15321,-0.126937 -0.44526,-0.190455 -0.87623,-0.190455 z m 2.99019,4.452503 v -4.951058 h 0.55547 v 2.202027 l 1.98502,-2.202027 h 0.67119 l -2.02687,2.228564 2.2275,2.722494 h -0.72632 l -2.13052,-2.664814 v 2.664814 z m 5.62873,-2.747862 c 0.30752,0.137285 0.54007,0.319609 0.69546,0.547 0.15653,0.22734 0.2348,0.497387 0.2348,0.807873 0,0.454726 -0.13892,0.821733 -0.41553,1.09981 -0.27664,0.278156 -0.6426,0.41783 -1.09996,0.41783 -0.37253,0 -0.68446,-0.09929 -0.93685,-0.298921 -0.25127,-0.199636 -0.42104,-0.482418 -0.51028,-0.849424 l 0.51028,-0.264271 c 0.0694,0.300088 0.18301,0.527426 0.34167,0.682061 0.15762,0.154678 0.35603,0.231998 0.59518,0.231998 0.28216,0 0.51032,-0.08543 0.68551,-0.255093 0.1742,-0.170807 0.2612,-0.392406 0.2612,-0.664708 0,-0.221599 -0.0606,-0.413207 -0.18294,-0.577043 -0.12122,-0.163906 -0.30418,-0.301241 -0.54997,-0.414377 l -0.57534,-0.257326 c -0.31411,-0.137384 -0.54884,-0.313938 -0.70205,-0.530865 -0.15431,-0.215823 -0.23146,-0.475522 -0.23146,-0.777896 0,-0.351988 0.12456,-0.642845 0.37473,-0.872472 0.2502,-0.22966 0.56871,-0.345082 0.95667,-0.345082 0.28327,0 0.53013,0.06347 0.73736,0.18924 0.20829,0.126984 0.3703,0.31277 0.48605,0.559737 l -0.46513,0.310478 c -0.1047,-0.191601 -0.2237,-0.333513 -0.3549,-0.427003 -0.13115,-0.09346 -0.27995,-0.140788 -0.44526,-0.140788 -0.21162,0 -0.38465,0.06804 -0.51914,0.203089 -0.13445,0.135049 -0.20166,0.306975 -0.20166,0.517009 0,0.175438 0.0518,0.327793 0.15543,0.455898 0.10248,0.129273 0.26337,0.242359 0.48049,0.341625 z"
       style="fill:#3a3a3a;fill-rule:evenodd;stroke-width:0.160768"
       id="path2732" />
    <path
       d="M 143.65061,85.378647 V 71.801675 h 0.24451 0.22044 l 9.01933,10.314085 V 71.801675 h 1.46887 v 13.576972 h -0.25154 -0.23738 l -8.99947,-10.183239 0.004,10.183239 z"
       style="fill:#3a3a3a;fill-rule:evenodd;stroke-width:0.160768"
       id="path2734" />
    <path
       d="m 141.1269,78.618627 c 0,0.971611 -0.1723,1.886228 -0.51379,2.743901 -0.34155,0.860806 -0.84026,1.623552 -1.49611,2.291289 -0.65587,0.667785 -1.41146,1.180476 -2.26378,1.544455 -0.85534,0.360744 -1.73789,0.541176 -2.65366,0.541176 -0.91577,0 -1.7953,-0.180435 -2.64457,-0.541176 -0.84631,-0.363979 -1.59886,-0.87667 -2.25474,-1.544455 -0.66192,-0.674087 -1.16361,-1.439994 -1.5112,-2.300798 -0.34453,-0.857636 -0.51684,-1.769131 -0.51684,-2.734392 0,-0.971558 0.17231,-1.88623 0.51684,-2.750198 0.34759,-0.860809 0.84928,-1.629886 1.5112,-2.303976 0.64981,-0.661453 1.39938,-1.170964 2.2517,-1.528598 0.84928,-0.357632 1.73184,-0.538004 2.64761,-0.538004 0.92184,0 1.80742,0.180372 2.66271,0.538004 0.85235,0.357634 1.6049,0.867145 2.25473,1.528598 0.65585,0.667787 1.15456,1.433658 1.49611,2.294501 0.34149,0.863984 0.51379,1.781765 0.51379,2.759673 z m -6.92735,5.60169 c 0.70723,0 1.38424,-0.139245 2.02199,-0.420907 0.64072,-0.281678 1.21804,-0.693071 1.73184,-1.231125 0.50775,-0.53167 0.8946,-1.132962 1.16058,-1.807086 0.26596,-0.674087 0.39899,-1.389353 0.39899,-2.142572 0,-0.759518 -0.13303,-1.484291 -0.40202,-2.171017 -0.26899,-0.686776 -0.65583,-1.291275 -1.15755,-1.816608 -0.50775,-0.531704 -1.08204,-0.936768 -1.72276,-1.215303 -0.63775,-0.278506 -1.31779,-0.417745 -2.03107,-0.417745 -0.71932,0 -1.40241,0.139239 -2.04615,0.417745 -0.64376,0.278535 -1.21198,0.683599 -1.70766,1.215303 -0.50774,0.538017 -0.89461,1.145646 -1.16058,1.826067 -0.26601,0.680437 -0.39899,1.402037 -0.39899,2.161558 0,0.753219 0.13,1.465305 0.39294,2.133095 0.26292,0.667739 0.65283,1.272254 1.16663,1.816563 0.51986,0.544356 1.09713,0.955797 1.7288,1.234284 0.63472,0.278503 1.31175,0.417748 2.02501,0.417748 z"
       style="fill:#3a3a3a;fill-rule:evenodd;stroke-width:0.160768"
       id="path2736" />
    <path
       d="M 123.19504,85.378647 V 71.801675 h 1.5414 v 13.576972 z"
       style="fill:#3a3a3a;fill-rule:evenodd;stroke-width:0.160768"
       id="path2738" />
    <path
       d="M 116.2526,85.378647 V 73.33978 h -3.66314 v -1.538105 h 8.86769 v 1.538105 h -3.64503 v 12.038867 z"
       style="fill:#3a3a3a;fill-rule:evenodd;stroke-width:0.160768"
       id="path2740" />
    <path
       d="m 91.728874,85.378647 7.293023,-12.095856 h -5.914795 v -1.481116 h 8.526148 l -7.214447,12.038864 h 6.921287 v 1.538108 z"
       style="fill:#3a3a3a;fill-rule:evenodd;stroke-width:0.160768"
       id="path2742" />
    <path
       d="M 88.703472,85.378647 V 71.801675 h 1.541405 v 13.576972 z"
       style="fill:#3a3a3a;fill-rule:evenodd;stroke-width:0.160768"
       id="path2744" />
    <path
       d="M 80.416069,85.378647 V 71.801675 h 1.541404 v 12.038861 h 4.896281 v 1.538108 z"
       style="fill:#3a3a3a;fill-rule:evenodd;stroke-width:0.160768"
       id="path2746" />
    <path
       d="m 56.285243,71.801675 h 1.559563 v 8.449998 c 0,1.373544 0.278037,2.379932 0.837176,3.022369 0.559139,0.642451 1.432653,0.965259 2.626447,0.965259 1.193851,0 2.06732,-0.322808 2.626503,-0.965259 0.559139,-0.642437 0.837179,-1.648822 0.837179,-3.022369 v -8.449998 h 1.55956 v 8.449998 c 0,1.835591 -0.41706,3.20912 -1.251252,4.12057 -0.837205,0.911458 -2.094529,1.367205 -3.774974,1.367205 -1.677458,0 -2.931745,-0.455747 -3.768953,-1.367205 -0.834186,-0.91145 -1.251249,-2.284981 -1.251249,-4.12057 z"
       style="fill:#3a3a3a;fill-rule:evenodd;stroke-width:0.160768"
       id="path2748" />
    <path
       d="m 51.736551,77.843247 c 0.843242,0.376616 1.480978,0.876671 1.90714,1.500103 0.429178,0.62348 0.643744,1.36407 0.643744,2.215372 0,1.246918 -0.38082,2.253369 -1.13943,3.016049 -0.758648,0.762744 -1.762074,1.145646 -3.01636,1.145646 -1.021591,0 -1.876931,-0.272153 -2.569046,-0.819682 -0.689085,-0.547465 -1.154521,-1.322842 -1.39933,-2.329275 l 1.39933,-0.724728 c 0.190434,0.822843 0.501732,1.446326 0.936974,1.870405 0.432176,0.424096 0.976217,0.636136 1.632072,0.636136 0.773715,0 1.399391,-0.234196 1.879911,-0.699456 0.477552,-0.468381 0.716312,-1.076026 0.716312,-1.822894 0,-0.60764 -0.166206,-1.133009 -0.501685,-1.58241 -0.332462,-0.44941 -0.834188,-0.826029 -1.50819,-1.136184 l -1.577694,-0.705744 c -0.861407,-0.376611 -1.505146,-0.860806 -1.925257,-1.455798 -0.423131,-0.591831 -0.63471,-1.303875 -0.63471,-2.133069 0,-0.965253 0.34154,-1.762778 1.027608,-2.392561 0.686099,-0.629835 1.559568,-0.94629 2.623421,-0.94629 0.776785,0 1.4538,0.174038 2.022035,0.519036 0.571206,0.34811 1.015478,0.857636 1.332841,1.53488 l -1.275448,0.851352 c -0.28712,-0.525335 -0.613563,-0.914622 -0.973216,-1.170966 -0.359672,-0.256339 -0.767702,-0.386123 -1.221028,-0.386123 -0.580332,0 -1.054804,0.186719 -1.423556,0.557035 -0.368753,0.370269 -0.553075,0.841828 -0.553075,1.417781 0,0.481084 0.142013,0.898813 0.426143,1.250114 0.281073,0.354459 0.722316,0.664612 1.31776,0.936813 z"
       style="fill:#3a3a3a;fill-rule:evenodd;stroke-width:0.160768"
       id="path2750" />
    <path
       d="M 42.339921,85.378647 V 71.801675 h 1.541404 v 13.576972 z"
       style="fill:#3a3a3a;fill-rule:evenodd;stroke-width:0.160768"
       id="path2752" />
    <path
       d="m 131.7271,91.956609 a 0.38103847,0.39899127 0 0 1 0.38105,0.398994 0.38103847,0.39899127 0 1 1 -0.38105,-0.398994 z"
       style="fill:#ff5d22;fill-rule:evenodd;stroke-width:0.160768"
       id="path2754" />
    <path
       d="m 34.114343,80.067515 3.348498,-8.30153 h 3.13932 L 34.75378,85.447015 H 33.473665 L 27.60376,71.765988 h 3.145999 z"
       style="fill:#ff5d22;fill-rule:evenodd;stroke-width:0.160768"
       id="path2756" />
    <path
       d="m 107.96561,71.801675 5.67448,13.576972 h -1.6714 l -4.22531,-10.538767 -4.20417,10.538767 h -1.66831 l 5.65121,-13.576972 z"
       style="fill:#3a3a3a;fill-rule:evenodd;stroke-width:0.160768"
       id="path2758" />
    <path
       d="m 73.058567,71.801675 5.674477,13.576972 H 77.06165 L 72.836331,74.83988 68.632189,85.378647 h -1.668336 l 5.651241,-13.576972 z"
       style="fill:#3a3a3a;fill-rule:evenodd;stroke-width:0.160768"
       id="path2760" />
  </g>
</svg>
