<?xml version="1.0" encoding="UTF-8" standalone="no"?>
<svg
   xmlns:dc="http://purl.org/dc/elements/1.1/"
   xmlns:cc="http://creativecommons.org/ns#"
   xmlns:rdf="http://www.w3.org/1999/02/22-rdf-syntax-ns#"
   xmlns:svg="http://www.w3.org/2000/svg"
   xmlns="http://www.w3.org/2000/svg"
   xmlns:sodipodi="http://sodipodi.sourceforge.net/DTD/sodipodi-0.dtd"
   xmlns:inkscape="http://www.inkscape.org/namespaces/inkscape"
   width="500"
   height="210"
   viewBox="0 0 132.29166 55.562501"
   version="1.1"
   id="svg8"
   inkscape:export-filename="/home/fatih/bitmap.png"
   inkscape:export-xdpi="96"
   inkscape:export-ydpi="96"
   inkscape:version="1.0.1 (3bc2e813f5, 2020-09-07)"
   sodipodi:docname="logo.svg">
  <defs
     id="defs2">
    <filter
       inkscape:collect="always"
       style="color-interpolation-filters:sRGB"
       id="filter1142"
       x="-0.0066877117"
       width="1.0133754"
       y="-0.016719446"
       height="1.0334389">
      <feGaussianBlur
         inkscape:collect="always"
         stdDeviation="0.35241694"
         id="feGaussianBlur1144" />
    </filter>
  </defs>
  <sodipodi:namedview
     id="base"
     pagecolor="#ffffff"
     bordercolor="#666666"
     borderopacity="1.0"
     inkscape:pageopacity="0.0"
     inkscape:pageshadow="2"
     inkscape:zoom="0.90509668"
     inkscape:cx="338.39909"
     inkscape:cy="138.07958"
     inkscape:document-units="px"
     inkscape:current-layer="layer1"
     inkscape:document-rotation="0"
     showgrid="false"
     units="px"
     showguides="true"
     inkscape:guide-bbox="true"
     inkscape:snap-intersection-paths="false"
     inkscape:object-paths="false"
     inkscape:window-width="1366"
     inkscape:window-height="714"
     inkscape:window-x="0"
     inkscape:window-y="0"
     inkscape:window-maximized="1"
     inkscape:snap-others="false"
     inkscape:snap-nodes="false"
     inkscape:snap-global="true"
     inkscape:snap-bbox="true"
     inkscape:bbox-paths="true">
    <sodipodi:guide
       position="0,132.29166"
       orientation="-1,0"
       id="guide24"
       inkscape:label=""
       inkscape:locked="false"
       inkscape:color="rgb(0,0,255)" />
    <sodipodi:guide
       position="499.99999,132.29166"
       orientation="0,1"
       id="guide26"
       inkscape:label=""
       inkscape:locked="false"
       inkscape:color="rgb(0,0,255)" />
    <sodipodi:guide
       position="132.29166,0"
       orientation="-1,0"
       id="guide28"
       inkscape:label=""
       inkscape:locked="false"
       inkscape:color="rgb(0,0,255)" />
    <sodipodi:guide
       position="-3086.0131,-890.42626"
       orientation="0,1"
       id="guide30"
       inkscape:label=""
       inkscape:locked="false"
       inkscape:color="rgb(0,0,255)" />
    <sodipodi:guide
       position="0,0"
       orientation="0,1"
       id="guide34"
       inkscape:label=""
       inkscape:locked="false"
       inkscape:color="rgb(0,0,255)" />
    <sodipodi:guide
       position="28.865108,0"
       orientation="1,0"
       id="guide36" />
  </sodipodi:namedview>
  <metadata
     id="metadata5">
    <rdf:RDF>
      <cc:Work
         rdf:about="">
        <dc:format>image/svg+xml</dc:format>
        <dc:type
           rdf:resource="http://purl.org/dc/dcmitype/StillImage" />
        <dc:title />
      </cc:Work>
    </rdf:RDF>
  </metadata>
  <g
     inkscape:label="Katman 1"
     inkscape:groupmode="layer"
     id="layer1">
    <path
       id="path228"
       style="fill:#000b0b;fill-rule:evenodd;stroke-width:0.158866;filter:url(#filter1142);opacity:0.68292171;fill-opacity:1"
       d="m 109.37432,51.655173 -0.47787,1.384794 -1.64421,-4.355307 h 1.08607 z m 1.02521,-2.970513 h 0.0416 0.40198 l 0.002,0.0038 1.53204,4.312902 -0.29808,0.789867 h -0.21644 -0.22362 l -1.01152,-2.954644 -1.00728,2.954644 h -0.43958 l -0.27603,-0.731098 -0.009,-0.02063 z m 1.49914,2.970513 1.02213,-2.970513 h 1.0846 l -1.62859,4.316607 z m -4.65776,1.437886 a 0.34614147,0.35690233 0 0 1 0.34613,0.356901 0.34614147,0.35690233 0 1 1 -0.34613,-0.356901 z m 9.25991,0.28447 c 0.25687,0 0.50274,-0.04974 0.73431,-0.150543 0.23274,-0.1007 0.44231,-0.247805 0.62895,-0.440224 0.18437,-0.190081 0.32485,-0.405104 0.42141,-0.646181 0.0967,-0.24104 0.14488,-0.496797 0.14488,-0.766134 0,-0.271583 -0.0483,-0.530772 -0.14596,-0.776334 -0.0977,-0.245607 -0.23813,-0.461711 -0.42033,-0.649615 -0.18441,-0.190084 -0.39304,-0.334993 -0.62562,-0.434546 -0.23162,-0.0996 -0.4786,-0.149399 -0.73764,-0.149399 -0.26117,0 -0.50926,0.04978 -0.74303,0.149399 -0.23373,0.09955 -0.44019,0.244462 -0.62008,0.434546 -0.18441,0.192389 -0.32489,0.409686 -0.42148,0.653004 -0.0967,0.243317 -0.14485,0.501362 -0.14485,0.772945 0,0.269337 0.0472,0.523993 0.14264,0.762746 0.0956,0.2388 0.23711,0.454955 0.42369,0.649569 0.18876,0.194713 0.39841,0.341817 0.62779,0.441418 0.23042,0.0996 0.47639,0.149349 0.73532,0.149349 z m 2.51569,-2.003082 c 0,0.347448 -0.0622,0.674489 -0.18659,0.981187 -0.12401,0.307799 -0.30519,0.580524 -0.54329,0.819309 -0.23818,0.2388 -0.5126,0.422125 -0.82208,0.552261 -0.31065,0.129008 -0.63114,0.193582 -0.96373,0.193582 -0.33254,0 -0.65191,-0.06458 -0.96034,-0.193582 -0.30729,-0.130136 -0.58061,-0.313461 -0.81873,-0.552261 -0.24046,-0.241024 -0.42265,-0.514897 -0.54889,-0.822741 -0.12498,-0.306652 -0.18764,-0.632597 -0.18764,-0.977755 0,-0.347448 0.0622,-0.674492 0.18764,-0.983434 0.12624,-0.3078 0.30843,-0.582798 0.54889,-0.823888 0.23592,-0.236496 0.50813,-0.41872 0.81763,-0.546632 0.30838,-0.127859 0.6289,-0.192371 0.96144,-0.192371 0.33475,0 0.65644,0.06451 0.96705,0.192371 0.30943,0.127912 0.58279,0.310136 0.81876,0.546632 0.2381,0.2388 0.41928,0.512672 0.54329,0.820468 0.124,0.308975 0.18659,0.637178 0.18659,0.986854 z m 0.91642,2.417284 v -4.854962 h 1.10634 c 0.315,0 0.54667,0.01805 0.6926,0.05433 0.14711,0.03727 0.27662,0.09954 0.38855,0.187807 0.13942,0.112036 0.24696,0.263709 0.3237,0.452662 0.0782,0.189049 0.11651,0.398393 0.11651,0.628129 0,0.397248 -0.10767,0.700512 -0.32275,0.906466 -0.21626,0.207102 -0.53125,0.310089 -0.94726,0.310089 h -0.0998 l 1.79786,2.315445 h -0.71132 l -1.7188,-2.315445 h -0.0793 v 2.315445 z m 0.54658,-4.366083 v 1.622853 h 0.42698 c 0.43798,0 0.73099,-0.05774 0.87917,-0.174272 0.14816,-0.115474 0.22168,-0.317994 0.22168,-0.607738 0,-0.311169 -0.0759,-0.528482 -0.22826,-0.654086 -0.15255,-0.124474 -0.44347,-0.186757 -0.87259,-0.186757 z m 2.97776,4.366083 v -4.854962 h 0.55313 v 2.159289 l 1.97675,-2.159289 h 0.66835 l -2.01839,2.18531 2.21825,2.669652 h -0.72335 l -2.12161,-2.613096 v 2.613096 z m 5.60522,-2.694527 c 0.30626,0.13462 0.53783,0.313409 0.69262,0.536386 0.15583,0.222927 0.23382,0.487732 0.23382,0.792188 0,0.445901 -0.1383,0.805787 -0.4138,1.078467 -0.27552,0.272757 -0.63988,0.409718 -1.09543,0.409718 -0.37098,0 -0.68161,-0.09733 -0.93295,-0.293116 -0.2502,-0.195761 -0.41923,-0.473052 -0.50813,-0.832938 l 0.50813,-0.259145 c 0.0691,0.294263 0.18225,0.517189 0.34028,0.66883 0.15691,0.151671 0.35456,0.227492 0.59267,0.227492 0.28108,0 0.50822,-0.08377 0.68269,-0.250143 0.17347,-0.167497 0.26016,-0.384794 0.26016,-0.651807 0,-0.217297 -0.0603,-0.405186 -0.18223,-0.565845 -0.12076,-0.160721 -0.30286,-0.295391 -0.54768,-0.406332 l -0.57291,-0.252334 c -0.31279,-0.134717 -0.54664,-0.307845 -0.69919,-0.52056 -0.1536,-0.211635 -0.23041,-0.466294 -0.23041,-0.762796 0,-0.345158 0.12403,-0.630372 0.37316,-0.855526 0.24907,-0.225216 0.56634,-0.338399 0.95263,-0.338399 0.28212,0 0.52792,0.06223 0.73433,0.185568 0.20738,0.124522 0.36869,0.3067 0.48398,0.54887 l -0.46318,0.304456 c -0.10418,-0.187886 -0.2228,-0.327038 -0.3534,-0.418719 -0.13056,-0.09168 -0.27874,-0.138054 -0.44345,-0.138054 -0.21066,0 -0.38298,0.0667 -0.51691,0.199149 -0.13389,0.132426 -0.20082,0.301018 -0.20082,0.506975 0,0.172031 0.0518,0.321428 0.15475,0.447049 0.10201,0.126764 0.26225,0.237655 0.47851,0.335009 z M 48.783483,33.32931 54.434315,46.642765 H 52.769889 L 48.562178,36.308551 44.375539,46.642765 H 42.714168 L 48.341843,33.32931 Z m 34.761558,0 5.65085,13.313455 h -1.66444 l -4.20771,-10.334214 -4.18662,10.334214 h -1.66139 l 5.62769,-13.313455 z m -73.543512,8.105414 3.334547,-8.140401 h 3.126236 L 10.638301,46.709809 H 9.3635197 L 3.5180712,33.294323 h 3.13289 z m 97.239381,11.658335 a 0.34614147,0.35690233 0 0 1 0.34613,0.356901 0.34614147,0.35690233 0 1 1 -0.34613,-0.356901 z M 18.192841,46.642765 V 33.32931 h 1.534976 v 13.313455 z m 9.35747,-7.389141 c 0.839715,0.369308 1.474807,0.859654 1.899182,1.47099 0.427397,0.611382 0.641069,1.337591 0.641069,2.172368 0,1.222717 -0.379231,2.209637 -1.134672,2.957513 -0.755508,0.747937 -1.754739,1.123407 -3.003802,1.123407 -1.017329,0 -1.869102,-0.266867 -2.558335,-0.803756 -0.686227,-0.536851 -1.14973,-1.297181 -1.393518,-2.284084 l 1.393518,-0.710657 c 0.189637,0.806869 0.499638,1.418253 0.933061,1.834102 0.430368,0.415864 0.972139,0.623788 1.625274,0.623788 0.770478,0 1.393545,-0.229654 1.872081,-0.685883 0.475559,-0.459289 0.713332,-1.055139 0.713332,-1.787509 0,-0.595849 -0.16552,-1.111022 -0.499612,-1.551697 -0.33106,-0.44069 -0.830695,-0.809982 -1.501892,-1.114133 l -1.57112,-0.692045 c -0.857815,-0.369309 -1.498894,-0.844099 -1.917233,-1.427544 -0.421364,-0.580346 -0.632069,-1.278565 -0.632069,-2.091661 0,-0.946526 0.340118,-1.72857 1.023317,-2.34613 0.683255,-0.617609 1.553076,-0.927921 2.612504,-0.927921 0.773542,0 1.447738,0.17066 2.013595,0.508959 0.568824,0.34137 1.011256,0.840993 1.327299,1.505093 l -1.270139,0.834826 c -0.285915,-0.515142 -0.610999,-0.896871 -0.969162,-1.148238 -0.358171,-0.251365 -0.7645,-0.378632 -1.215934,-0.378632 -0.577916,0 -1.05041,0.183096 -1.41762,0.546226 -0.367221,0.363083 -0.55079,0.825488 -0.55079,1.390265 0,0.471744 0.141432,0.881367 0.424381,1.225848 0.279883,0.347578 0.719309,0.651712 1.312259,0.918629 z m 4.52972,-5.924314 h 1.553087 v 8.285994 c 0,1.346885 0.276876,2.333752 0.833689,2.963706 0.556806,0.629982 1.426661,0.946521 2.615503,0.946521 1.188876,0 2.058698,-0.316539 2.615553,-0.946521 0.556817,-0.629954 0.83369,-1.616821 0.83369,-2.963706 V 33.32931 h 1.553071 v 8.285994 c 0,1.799968 -0.415325,3.146833 -1.246035,4.040592 -0.83374,0.893769 -2.085801,1.340672 -3.759245,1.340672 -1.670477,0 -2.919538,-0.446903 -3.753251,-1.340672 -0.830722,-0.893759 -1.246062,-2.240624 -1.246062,-4.040592 z m 24.03029,13.313455 V 33.32931 h 1.534986 v 11.8052 h 4.875871 v 1.508255 z m 8.252868,0 V 33.32931 h 1.53499 v 13.313455 z m 3.012797,0 7.26262,-11.861082 H 68.748461 V 33.32931 h 8.490631 l -7.184406,11.8052 h 6.89245 v 1.508255 z m 24.421535,0 V 34.837566 h -3.64789 V 33.32931 h 8.83075 v 1.508256 h -3.62984 v 11.805199 z m 6.913502,0 V 33.32931 h 1.534957 v 13.313455 z m 17.857187,-6.628813 c 0,0.952753 -0.17158,1.849621 -0.51169,2.690641 -0.34014,0.844105 -0.83674,1.592043 -1.48987,2.246819 -0.6531,0.654828 -1.4055,1.157563 -2.25428,1.514481 -0.85183,0.353742 -1.73066,0.530675 -2.64269,0.530675 -0.91191,0 -1.78782,-0.176933 -2.63356,-0.530675 -0.84271,-0.356918 -1.5921,-0.859653 -2.24527,-1.514481 -0.65915,-0.661002 -1.15876,-1.412039 -1.50499,-2.256144 -0.34305,-0.840985 -0.51461,-1.73479 -0.51461,-2.681316 0,-0.952702 0.17156,-1.849619 0.51461,-2.696817 0.34623,-0.844101 0.84584,-1.598253 1.50499,-2.259257 0.64707,-0.648598 1.39356,-1.148238 2.24234,-1.498929 0.84574,-0.35069 1.72458,-0.52756 2.63649,-0.52756 0.91801,0 1.79988,0.17687 2.65167,0.52756 0.84881,0.350691 1.59819,0.850331 2.2453,1.498929 0.65313,0.654825 1.14973,1.405831 1.48987,2.249966 0.34011,0.847214 0.51169,1.74718 0.51169,2.706108 z m -6.89853,5.492964 c 0.70434,0 1.37857,-0.136542 2.01362,-0.412735 0.63805,-0.276209 1.2129,-0.67962 1.72457,-1.207232 0.50568,-0.521349 0.89097,-1.11097 1.15582,-1.772007 0.26483,-0.661007 0.39731,-1.362388 0.39731,-2.10099 0,-0.744777 -0.13248,-1.455484 -0.40035,-2.128877 -0.26789,-0.673445 -0.65313,-1.266208 -1.15278,-1.781349 -0.50557,-0.521383 -1.0775,-0.918586 -1.71555,-1.191714 -0.63506,-0.273094 -1.31232,-0.409638 -2.02264,-0.409638 -0.71629,0 -1.39649,0.136544 -2.0376,0.409638 -0.64108,0.273128 -1.20693,0.670331 -1.7005,1.191714 -0.50568,0.527578 -0.89098,1.123409 -1.1558,1.790625 -0.26487,0.667232 -0.39735,1.374824 -0.39735,2.119601 0,0.738602 0.12947,1.436869 0.39136,2.091695 0.2618,0.654796 0.65014,1.247561 1.16179,1.781302 0.51768,0.533791 1.09247,0.937248 1.72156,1.210329 0.63211,0.273096 1.30634,0.409638 2.01654,0.409638 z m 9.41168,1.135849 V 33.32931 h 0.24357 0.2195 l 8.98177,10.113901 V 33.32931 h 1.46273 v 13.313455 h -0.25055 -0.23639 l -8.96194,-9.985588 0.004,9.985588 z m -2.58054,6.734764 c 0.25687,0 0.50274,-0.04974 0.73431,-0.150543 0.23274,-0.1007 0.44231,-0.247805 0.62895,-0.440224 0.18437,-0.190081 0.32485,-0.405104 0.42141,-0.646181 0.0967,-0.24104 0.14488,-0.496797 0.14488,-0.766134 0,-0.271583 -0.0483,-0.530772 -0.14596,-0.776334 -0.0977,-0.245607 -0.23813,-0.461711 -0.42033,-0.649615 -0.18441,-0.190084 -0.39304,-0.334993 -0.62562,-0.434546 -0.23162,-0.0996 -0.4786,-0.149399 -0.73764,-0.149399 -0.26117,0 -0.50926,0.04978 -0.74303,0.149399 -0.23373,0.09955 -0.44019,0.244462 -0.62008,0.434546 -0.18441,0.192389 -0.32489,0.409686 -0.42148,0.653004 -0.0967,0.243317 -0.14485,0.501362 -0.14485,0.772945 0,0.269337 0.0472,0.523993 0.14264,0.762746 0.0956,0.2388 0.23711,0.454955 0.42369,0.649569 0.18876,0.194713 0.39841,0.341817 0.62779,0.441418 0.23042,0.0996 0.47639,0.149349 0.73532,0.149349 z m 2.51569,-2.003082 c 0,0.347448 -0.0622,0.674489 -0.18659,0.981187 -0.12401,0.307799 -0.30519,0.580524 -0.54329,0.819309 -0.23818,0.2388 -0.5126,0.422125 -0.82208,0.552261 -0.31064,0.129008 -0.63114,0.193582 -0.96373,0.193582 -0.33254,0 -0.6519,-0.06458 -0.96034,-0.193582 -0.30728,-0.130136 -0.5806,-0.313461 -0.81873,-0.552261 -0.24046,-0.241024 -0.42265,-0.514897 -0.54889,-0.822741 -0.12497,-0.306652 -0.18764,-0.632597 -0.18764,-0.977755 0,-0.347448 0.0622,-0.674492 0.18764,-0.983434 0.12624,-0.3078 0.30843,-0.582798 0.54889,-0.823888 0.23592,-0.236496 0.50813,-0.41872 0.81763,-0.546632 0.30838,-0.127859 0.6289,-0.192371 0.96144,-0.192371 0.33475,0 0.65644,0.06451 0.96705,0.192371 0.30943,0.127912 0.58279,0.310136 0.81876,0.546632 0.2381,0.2388 0.41928,0.512672 0.54329,0.820468 0.124,0.308975 0.18659,0.637178 0.18659,0.986854 z m 0.91642,2.417284 v -4.854962 h 1.10634 c 0.315,0 0.54668,0.01805 0.6926,0.05433 0.14711,0.03727 0.27662,0.09954 0.38855,0.187807 0.13942,0.112036 0.24696,0.263709 0.3237,0.452662 0.0782,0.189049 0.11651,0.398393 0.11651,0.628129 0,0.397248 -0.10766,0.700512 -0.32274,0.906466 -0.21627,0.207102 -0.53125,0.310089 -0.94726,0.310089 h -0.0998 l 1.79786,2.315445 h -0.71132 l -1.7188,-2.315445 h -0.0793 v 2.315445 z m 0.54658,-4.366083 v 1.622853 h 0.42699 c 0.43797,0 0.73098,-0.05774 0.87916,-0.174272 0.14817,-0.115474 0.22169,-0.317994 0.22169,-0.607738 0,-0.311169 -0.0759,-0.528482 -0.22826,-0.654086 -0.15256,-0.124474 -0.44348,-0.186757 -0.87259,-0.186757 z m 2.97777,4.366083 v -4.854962 h 0.55312 v 2.159289 l 1.97675,-2.159289 h 0.66836 l -2.0184,2.18531 2.21826,2.669652 h -0.72336 l -2.12161,-2.613096 v 2.613096 z m 5.60521,-2.694527 c 0.30626,0.13462 0.53783,0.313409 0.69262,0.536386 0.15583,0.222927 0.23382,0.487732 0.23382,0.792188 0,0.445901 -0.13829,0.805787 -0.4138,1.078467 -0.27552,0.272757 -0.63988,0.409718 -1.09542,0.409718 -0.37098,0 -0.68161,-0.09733 -0.93295,-0.293116 -0.2502,-0.195761 -0.41923,-0.473052 -0.50813,-0.832938 l 0.50813,-0.259145 c 0.0691,0.294263 0.18224,0.517189 0.34028,0.66883 0.15691,0.151671 0.35456,0.227492 0.59267,0.227492 0.28107,0 0.50821,-0.08377 0.68268,-0.250143 0.17348,-0.167497 0.26017,-0.384794 0.26017,-0.651807 0,-0.217297 -0.0603,-0.405186 -0.18223,-0.565845 -0.12076,-0.160721 -0.30287,-0.295391 -0.54769,-0.406332 l -0.5729,-0.252334 c -0.31279,-0.134717 -0.54664,-0.307845 -0.69919,-0.52056 -0.1536,-0.211635 -0.23041,-0.466294 -0.23041,-0.762796 0,-0.345158 0.12403,-0.630372 0.37316,-0.855526 0.24907,-0.225216 0.56634,-0.338399 0.95263,-0.338399 0.28211,0 0.52791,0.06223 0.73433,0.185568 0.20738,0.124522 0.36868,0.3067 0.48398,0.54887 l -0.46318,0.304456 c -0.10419,-0.187886 -0.2228,-0.327038 -0.3534,-0.418719 -0.13056,-0.09168 -0.27874,-0.138054 -0.44346,-0.138054 -0.21066,0 -0.38298,0.0667 -0.51691,0.199149 -0.13389,0.132426 -0.20082,0.301018 -0.20082,0.506975 0,0.172031 0.0518,0.321428 0.15475,0.447049 0.10201,0.126764 0.26225,0.237655 0.47851,0.335009 z M 62.54021,3.332948 h -8.426397 l 4.213199,8.68837 z m 0,0 h -8.426397 l 12.639612,26.065095 8.426397,-17.376725 8.426409,17.376725 12.63961,-26.065095 h -8.42642 l -4.21319,8.68837 -4.2132,-8.68837 h -8.426408 l -4.213198,8.68837 z m 0,0 h -8.426397 l 4.213199,8.68837 z m -4.213198,8.68837 h -8.426413 l 4.213214,-8.68837 z m 0,0 h -8.426413 l 4.213214,8.688355 z m -4.213199,8.688355 h -8.426412 l 4.213198,8.68837 z m 0,0 h -8.426412 l 4.213198,-8.688355 z m -4.213214,-8.688355 h -8.426397 l 4.213199,8.688355 z m 0,0 h -8.426397 l 4.213199,-8.68837 z m -4.213198,-8.68837 h -8.426413 l 4.213214,8.68837 z" />
    <g
       id="Layer1002"
       transform="matrix(0.15645523,0,0,0.16131906,397.52857,1165.3136)">
      <path
         d="m -2252.7136,-7208.2372 h -53.8583 l 26.9292,53.8583 z"
         style="fill:#f06868;fill-rule:evenodd"
         id="path538" />
      <path
         d="m -2225.7845,-7154.3789 h -53.8582 l 26.9291,-53.8583 z"
         style="fill:#e02424;fill-rule:evenodd"
         id="path540" />
      <path
         d="m -2225.7845,-7154.3789 h -53.8582 l 26.9291,53.8582 z"
         style="fill:#ca0b0b;fill-rule:evenodd"
         id="path542" />
      <path
         d="m -2198.8553,-7100.5207 h -53.8583 l 26.9291,-53.8582 z"
         style="fill:#ac0505;fill-rule:evenodd"
         id="path544" />
      <path
         d="m -2198.8553,-7100.5207 h -53.8583 l 26.9291,53.8583 z"
         style="fill:#ca0b0b;fill-rule:evenodd"
         id="path546" />
      <path
         d="m -2171.9262,-7154.3789 h -53.8583 l 26.9292,53.8582 z"
         style="fill:#8a0808;fill-rule:evenodd"
         id="path548" />
      <path
         d="m -2171.9262,-7154.3789 h -53.8583 l 26.9292,-53.8583 z"
         style="fill:#5f0404;fill-rule:evenodd"
         id="path550" />
      <path
         d="m -2144.9971,-7208.2372 h -53.8582 l 26.9291,53.8583 z"
         style="fill:#e30016;fill-rule:evenodd"
         id="path552" />
      <path
         d="m -2144.9971,-7208.2372 h -53.8582 l 80.7874,161.5748 53.8582,-107.7165 53.8583,107.7165 80.7874,-161.5748 h -53.8583 l -26.9291,53.8583 -26.9291,-53.8583 h -53.8583 l -26.9291,53.8583 z"
         style="fill:#3a3a3a;fill-rule:evenodd"
         id="path554" />
      <path
         d="m -2144.9971,-7208.2372 h -53.8582 l 26.9291,53.8583 z"
         style="fill:#4a4c4a;fill-rule:evenodd"
         id="path556" />
    </g>
    <path
       d="m 115.89317,52.532131 c 0.25687,0 0.50274,-0.04974 0.73431,-0.150543 0.23274,-0.1007 0.44231,-0.247805 0.62895,-0.440224 0.18437,-0.190081 0.32485,-0.405104 0.42141,-0.646181 0.0967,-0.24104 0.14488,-0.496797 0.14488,-0.766134 0,-0.271583 -0.0483,-0.530772 -0.14596,-0.776334 -0.0977,-0.245607 -0.23813,-0.461711 -0.42033,-0.649615 -0.18441,-0.190084 -0.39304,-0.334993 -0.62562,-0.434546 -0.23162,-0.0996 -0.4786,-0.149399 -0.73764,-0.149399 -0.26117,0 -0.50926,0.04978 -0.74303,0.149399 -0.23373,0.09955 -0.44019,0.244462 -0.62008,0.434546 -0.18441,0.192389 -0.32489,0.409686 -0.42148,0.653004 -0.0967,0.243317 -0.14485,0.501362 -0.14485,0.772945 0,0.269337 0.0472,0.523993 0.14264,0.762746 0.0956,0.2388 0.23711,0.454955 0.42369,0.649569 0.18876,0.194713 0.39841,0.341817 0.62779,0.441418 0.23042,0.0996 0.47639,0.149349 0.73532,0.149349 z m 2.51569,-2.003082 c 0,0.347448 -0.0622,0.674489 -0.18659,0.981187 -0.12401,0.307799 -0.30519,0.580524 -0.54329,0.819309 -0.23818,0.2388 -0.5126,0.422125 -0.82208,0.552261 -0.31065,0.129008 -0.63114,0.193582 -0.96373,0.193582 -0.33254,0 -0.65191,-0.06458 -0.96034,-0.193582 -0.30729,-0.130136 -0.58061,-0.313461 -0.81873,-0.552261 -0.24046,-0.241024 -0.42265,-0.514897 -0.54889,-0.822741 -0.12498,-0.306652 -0.18764,-0.632597 -0.18764,-0.977755 0,-0.347448 0.0622,-0.674492 0.18764,-0.983434 0.12624,-0.3078 0.30843,-0.582798 0.54889,-0.823888 0.23592,-0.236496 0.50813,-0.41872 0.81763,-0.546632 0.30838,-0.127859 0.6289,-0.192371 0.96144,-0.192371 0.33475,0 0.65644,0.06451 0.96705,0.192371 0.30943,0.127912 0.58279,0.310136 0.81876,0.546632 0.2381,0.2388 0.41928,0.512672 0.54329,0.820468 0.124,0.308975 0.18659,0.637178 0.18659,0.986854 z m 0.91642,2.417284 v -4.854962 h 1.10634 c 0.315,0 0.54667,0.01805 0.6926,0.05433 0.14711,0.03727 0.27662,0.09954 0.38855,0.187807 0.13942,0.112036 0.24696,0.263709 0.3237,0.452662 0.0782,0.189049 0.11651,0.398393 0.11651,0.628129 0,0.397248 -0.10767,0.700512 -0.32275,0.906466 -0.21626,0.207102 -0.53125,0.310089 -0.94726,0.310089 h -0.0998 l 1.79786,2.315445 h -0.71132 l -1.7188,-2.315445 h -0.0793 v 2.315445 z m 0.54658,-4.366083 v 1.622853 h 0.42698 c 0.43798,0 0.73099,-0.05774 0.87917,-0.174272 0.14816,-0.115474 0.22168,-0.317994 0.22168,-0.607738 0,-0.311169 -0.0759,-0.528482 -0.22826,-0.654086 -0.15255,-0.124474 -0.44347,-0.186757 -0.87259,-0.186757 z m 2.97776,4.366083 v -4.854962 h 0.55313 v 2.159289 l 1.97675,-2.159289 h 0.66835 l -2.01839,2.18531 2.21825,2.669652 h -0.72335 l -2.12161,-2.613096 v 2.613096 z m 5.60522,-2.694527 c 0.30626,0.13462 0.53783,0.313409 0.69262,0.536386 0.15583,0.222927 0.23382,0.487732 0.23382,0.792188 0,0.445901 -0.1383,0.805787 -0.4138,1.078467 -0.27552,0.272757 -0.63988,0.409718 -1.09543,0.409718 -0.37098,0 -0.68161,-0.09733 -0.93295,-0.293116 -0.2502,-0.195761 -0.41923,-0.473052 -0.50813,-0.832938 l 0.50813,-0.259145 c 0.0691,0.294263 0.18225,0.517189 0.34028,0.66883 0.15691,0.151671 0.35456,0.227492 0.59267,0.227492 0.28108,0 0.50822,-0.08377 0.68269,-0.250143 0.17347,-0.167497 0.26016,-0.384794 0.26016,-0.651807 0,-0.217297 -0.0603,-0.405186 -0.18223,-0.565845 -0.12076,-0.160721 -0.30286,-0.295391 -0.54768,-0.406332 l -0.57291,-0.252334 c -0.31279,-0.134717 -0.54664,-0.307845 -0.69919,-0.52056 -0.1536,-0.211635 -0.23041,-0.466294 -0.23041,-0.762796 0,-0.345158 0.12403,-0.630372 0.37316,-0.855526 0.24907,-0.225216 0.56634,-0.338399 0.95263,-0.338399 0.28212,0 0.52792,0.06223 0.73433,0.185568 0.20738,0.124522 0.36869,0.3067 0.48398,0.54887 l -0.46318,0.304456 c -0.10418,-0.187886 -0.2228,-0.327038 -0.3534,-0.418719 -0.13056,-0.09168 -0.27874,-0.138054 -0.44346,-0.138054 -0.21066,0 -0.38298,0.0667 -0.51691,0.199149 -0.13389,0.132426 -0.20082,0.301018 -0.20082,0.506975 0,0.172031 0.0518,0.321428 0.15475,0.447049 0.10201,0.126764 0.26225,0.237655 0.47851,0.335009 z"
       style="fill:#3a3a3a;fill-rule:evenodd;stroke-width:0.158866"
       id="path559" />
    <path
       d="M 118.47371,45.797367 V 32.483912 h 0.24357 0.2195 l 8.98177,10.113901 V 32.483912 h 1.46273 v 13.313455 h -0.25055 -0.23639 l -8.96194,-9.985588 0.004,9.985588 z"
       style="fill:#3a3a3a;fill-rule:evenodd;stroke-width:0.158866"
       id="path561" />
    <path
       d="m 115.96056,39.168554 c 0,0.952753 -0.17158,1.849621 -0.51169,2.690641 -0.34014,0.844105 -0.83674,1.592043 -1.48987,2.246819 -0.6531,0.654828 -1.4055,1.157563 -2.25428,1.514481 -0.85183,0.353742 -1.73066,0.530675 -2.64269,0.530675 -0.91191,0 -1.78782,-0.176933 -2.63356,-0.530675 -0.84271,-0.356918 -1.5921,-0.859653 -2.24527,-1.514481 -0.65915,-0.661002 -1.15876,-1.412039 -1.50499,-2.256144 -0.34305,-0.840985 -0.51461,-1.73479 -0.51461,-2.681316 0,-0.952702 0.17156,-1.849619 0.51461,-2.696817 0.34623,-0.844101 0.84584,-1.598253 1.50499,-2.259257 0.64707,-0.648598 1.39356,-1.148238 2.24234,-1.498929 0.84574,-0.35069 1.72458,-0.52756 2.63649,-0.52756 0.91801,0 1.79988,0.17687 2.65167,0.52756 0.84881,0.350691 1.59819,0.850331 2.2453,1.498929 0.65313,0.654825 1.14973,1.405831 1.48987,2.249966 0.34011,0.847214 0.51169,1.74718 0.51169,2.706108 z m -6.89853,5.492964 c 0.70434,0 1.37857,-0.136542 2.01362,-0.412735 0.63805,-0.276209 1.2129,-0.67962 1.72457,-1.207232 0.50568,-0.521349 0.89097,-1.11097 1.15582,-1.772007 0.26483,-0.661007 0.39731,-1.362388 0.39731,-2.10099 0,-0.744777 -0.13248,-1.455484 -0.40035,-2.128877 -0.26789,-0.673445 -0.65313,-1.266208 -1.15278,-1.781349 -0.50557,-0.521383 -1.0775,-0.918586 -1.71555,-1.191714 -0.63506,-0.273094 -1.31232,-0.409638 -2.02264,-0.409638 -0.71629,0 -1.39649,0.136544 -2.0376,0.409638 -0.64108,0.273128 -1.20693,0.670331 -1.7005,1.191714 -0.50568,0.527578 -0.89098,1.123409 -1.1558,1.790625 -0.26487,0.667232 -0.39735,1.374824 -0.39735,2.119601 0,0.738602 0.12947,1.436869 0.39136,2.091695 0.2618,0.654796 0.65013,1.247561 1.16179,1.781302 0.51768,0.533791 1.09247,0.937248 1.72156,1.210329 0.63211,0.273096 1.30634,0.409638 2.01654,0.409638 z"
       style="fill:#3a3a3a;fill-rule:evenodd;stroke-width:0.158866"
       id="path563" />
    <path
       d="M 98.103378,45.797367 V 32.483912 h 1.534954 v 13.313455 z"
       style="fill:#3a3a3a;fill-rule:evenodd;stroke-width:0.158866"
       id="path565" />
    <path
       d="M 91.189878,45.797367 V 33.992168 h -3.647897 v -1.508256 h 8.830753 v 1.508256 H 92.7429 v 11.805199 z"
       style="fill:#3a3a3a;fill-rule:evenodd;stroke-width:0.158866"
       id="path567" />
    <path
       d="m 66.768331,45.797367 7.26262,-11.861082 h -5.890145 v -1.452373 h 8.490631 l -7.184406,11.8052 h 6.89245 v 1.508255 z"
       style="fill:#3a3a3a;fill-rule:evenodd;stroke-width:0.158866"
       id="path569" />
    <path
       d="M 63.755534,45.797367 V 32.483912 h 1.53499 v 13.313455 z"
       style="fill:#3a3a3a;fill-rule:evenodd;stroke-width:0.158866"
       id="path571" />
    <path
       d="M 55.502666,45.797367 V 32.483912 h 1.534986 v 11.8052 h 4.875871 v 1.508255 z"
       style="fill:#3a3a3a;fill-rule:evenodd;stroke-width:0.158866"
       id="path573" />
    <path
       d="m 31.472376,32.483912 h 1.553087 v 8.285994 c 0,1.346885 0.276876,2.333752 0.833689,2.963706 0.556806,0.629982 1.426661,0.946521 2.615503,0.946521 1.188876,0 2.058698,-0.316539 2.615553,-0.946521 0.556817,-0.629954 0.83369,-1.616821 0.83369,-2.963706 v -8.285994 h 1.553071 v 8.285994 c 0,1.799968 -0.415325,3.146833 -1.246035,4.040592 -0.83374,0.893769 -2.085801,1.340672 -3.759245,1.340672 -1.670477,0 -2.919538,-0.446903 -3.753251,-1.340672 -0.830722,-0.893759 -1.246062,-2.240624 -1.246062,-4.040592 z"
       style="fill:#3a3a3a;fill-rule:evenodd;stroke-width:0.158866"
       id="path575" />
    <path
       d="m 26.942656,38.408226 c 0.839715,0.369308 1.474807,0.859654 1.899182,1.47099 0.427397,0.611382 0.641069,1.337591 0.641069,2.172368 0,1.222717 -0.379231,2.209637 -1.134672,2.957513 -0.755508,0.747937 -1.754739,1.123407 -3.003802,1.123407 -1.017329,0 -1.869102,-0.266867 -2.558335,-0.803756 -0.686227,-0.536851 -1.14973,-1.297181 -1.393518,-2.284084 l 1.393518,-0.710657 c 0.189637,0.806869 0.499638,1.418253 0.933061,1.834102 0.430368,0.415864 0.972139,0.623788 1.625274,0.623788 0.770478,0 1.393545,-0.229654 1.872081,-0.685883 0.475559,-0.459289 0.713332,-1.055139 0.713332,-1.787509 0,-0.595849 -0.16552,-1.111022 -0.499612,-1.551697 -0.33106,-0.44069 -0.830695,-0.809982 -1.501892,-1.114133 L 24.357222,38.96063 C 23.499407,38.591321 22.858328,38.116531 22.439989,37.533086 22.018625,36.95274 21.80792,36.254521 21.80792,35.441425 c 0,-0.946526 0.340118,-1.72857 1.023317,-2.34613 0.683255,-0.617609 1.553076,-0.927921 2.612504,-0.927921 0.773542,0 1.447738,0.17066 2.013595,0.508959 0.568824,0.34137 1.011256,0.840993 1.327299,1.505093 l -1.270139,0.834826 c -0.285915,-0.515142 -0.610999,-0.896871 -0.969162,-1.148238 -0.358171,-0.251365 -0.7645,-0.378632 -1.215934,-0.378632 -0.577916,0 -1.05041,0.183096 -1.41762,0.546226 -0.367221,0.363083 -0.55079,0.825488 -0.55079,1.390265 0,0.471744 0.141432,0.881367 0.424381,1.225848 0.279883,0.347578 0.719309,0.651712 1.312259,0.918629 z"
       style="fill:#3a3a3a;fill-rule:evenodd;stroke-width:0.158866"
       id="path577" />
    <path
       d="M 17.585186,45.797367 V 32.483912 h 1.534976 v 13.313455 z"
       style="fill:#3a3a3a;fill-rule:evenodd;stroke-width:0.158866"
       id="path579" />
    <path
       d="m 106.63326,52.247661 a 0.34614147,0.35690233 0 0 1 0.34613,0.356901 0.34614147,0.35690233 0 1 1 -0.34613,-0.356901 z"
       style="fill:#ac0505;fill-rule:evenodd;stroke-width:0.158866"
       id="path581" />
    <path
       d="m 9.3938737,40.589326 3.3345473,-8.140401 h 3.126236 L 10.030646,45.864411 H 8.7558649 L 2.9104164,32.448925 h 3.1328897 z"
       style="fill:#ac0505;fill-rule:evenodd;stroke-width:0.158866"
       id="path583" />
    <path
       d="m 82.937391,32.483912 5.650856,13.313455 H 86.923802 L 82.716086,35.463153 78.529467,45.797367 h -1.661391 l 5.62769,-13.313455 z"
       style="fill:#3a3a3a;fill-rule:evenodd;stroke-width:0.158866"
       id="path587" />
    <path
       d="M 48.175828,32.483912 53.82666,45.797367 H 52.162234 L 47.954523,35.463153 43.767884,45.797367 h -1.661371 l 5.627675,-13.313455 z"
       style="fill:#3a3a3a;fill-rule:evenodd;stroke-width:0.158866"
       id="path589" />
    <path
       d="m 115.89317,52.532131 c 0.25687,0 0.50274,-0.04974 0.73431,-0.150543 0.23274,-0.1007 0.44231,-0.247805 0.62895,-0.440224 0.18437,-0.190081 0.32485,-0.405104 0.42141,-0.646181 0.0967,-0.24104 0.14488,-0.496797 0.14488,-0.766134 0,-0.271583 -0.0483,-0.530772 -0.14596,-0.776334 -0.0977,-0.245607 -0.23813,-0.461711 -0.42033,-0.649615 -0.18441,-0.190084 -0.39304,-0.334993 -0.62562,-0.434546 -0.23162,-0.0996 -0.4786,-0.149399 -0.73764,-0.149399 -0.26117,0 -0.50926,0.04978 -0.74303,0.149399 -0.23373,0.09955 -0.44019,0.244462 -0.62008,0.434546 -0.18441,0.192389 -0.32489,0.409686 -0.42148,0.653004 -0.0967,0.243317 -0.14485,0.501362 -0.14485,0.772945 0,0.269337 0.0472,0.523993 0.14264,0.762746 0.0956,0.2388 0.23711,0.454955 0.42369,0.649569 0.18876,0.194713 0.39841,0.341817 0.62779,0.441418 0.23042,0.0996 0.47639,0.149349 0.73532,0.149349 z m 2.51569,-2.003082 c 0,0.347448 -0.0622,0.674489 -0.18659,0.981187 -0.12401,0.307799 -0.30519,0.580524 -0.54329,0.819309 -0.23818,0.2388 -0.5126,0.422125 -0.82208,0.552261 -0.31065,0.129008 -0.63114,0.193582 -0.96373,0.193582 -0.33254,0 -0.65191,-0.06458 -0.96034,-0.193582 -0.30729,-0.130136 -0.58061,-0.313461 -0.81873,-0.552261 -0.24046,-0.241024 -0.42265,-0.514897 -0.54889,-0.822741 -0.12498,-0.306652 -0.18764,-0.632597 -0.18764,-0.977755 0,-0.347448 0.0622,-0.674492 0.18764,-0.983434 0.12624,-0.3078 0.30843,-0.582798 0.54889,-0.823888 0.23592,-0.236496 0.50813,-0.41872 0.81763,-0.546632 0.30838,-0.127859 0.6289,-0.192371 0.96144,-0.192371 0.33475,0 0.65644,0.06451 0.96705,0.192371 0.30943,0.127912 0.58279,0.310136 0.81876,0.546632 0.2381,0.2388 0.41928,0.512672 0.54329,0.820468 0.124,0.308975 0.18659,0.637178 0.18659,0.986854 z m 0.91642,2.417284 v -4.854962 h 1.10634 c 0.315,0 0.54667,0.01805 0.6926,0.05433 0.14711,0.03727 0.27662,0.09954 0.38855,0.187807 0.13942,0.112036 0.24696,0.263709 0.3237,0.452662 0.0782,0.189049 0.11651,0.398393 0.11651,0.628129 0,0.397248 -0.10767,0.700512 -0.32275,0.906466 -0.21626,0.207102 -0.53125,0.310089 -0.94726,0.310089 h -0.0998 l 1.79786,2.315445 h -0.71132 l -1.7188,-2.315445 h -0.0793 v 2.315445 z m 0.54658,-4.366083 v 1.622853 h 0.42698 c 0.43798,0 0.73099,-0.05774 0.87917,-0.174272 0.14816,-0.115474 0.22168,-0.317994 0.22168,-0.607738 0,-0.311169 -0.0759,-0.528482 -0.22826,-0.654086 -0.15255,-0.124474 -0.44347,-0.186757 -0.87259,-0.186757 z m 2.97776,4.366083 v -4.854962 h 0.55313 v 2.159289 l 1.97675,-2.159289 h 0.66835 l -2.01839,2.18531 2.21825,2.669652 h -0.72335 l -2.12161,-2.613096 v 2.613096 z m 5.60522,-2.694527 c 0.30626,0.13462 0.53783,0.313409 0.69262,0.536386 0.15583,0.222927 0.23382,0.487732 0.23382,0.792188 0,0.445901 -0.1383,0.805787 -0.4138,1.078467 -0.27552,0.272757 -0.63988,0.409718 -1.09543,0.409718 -0.37098,0 -0.68161,-0.09733 -0.93295,-0.293116 -0.2502,-0.195761 -0.41923,-0.473052 -0.50813,-0.832938 l 0.50813,-0.259145 c 0.0691,0.294263 0.18225,0.517189 0.34028,0.66883 0.15691,0.151671 0.35456,0.227492 0.59267,0.227492 0.28108,0 0.50822,-0.08377 0.68269,-0.250143 0.17347,-0.167497 0.26016,-0.384794 0.26016,-0.651807 0,-0.217297 -0.0603,-0.405186 -0.18223,-0.565845 -0.12076,-0.160721 -0.30286,-0.295391 -0.54768,-0.406332 l -0.57291,-0.252334 c -0.31279,-0.134717 -0.54664,-0.307845 -0.69919,-0.52056 -0.1536,-0.211635 -0.23041,-0.466294 -0.23041,-0.762796 0,-0.345158 0.12403,-0.630372 0.37316,-0.855526 0.24907,-0.225216 0.56634,-0.338399 0.95263,-0.338399 0.28212,0 0.52792,0.06223 0.73433,0.185568 0.20738,0.124522 0.36869,0.3067 0.48398,0.54887 l -0.46318,0.304456 c -0.10418,-0.187886 -0.2228,-0.327038 -0.3534,-0.418719 -0.13056,-0.09168 -0.27874,-0.138054 -0.44346,-0.138054 -0.21066,0 -0.38298,0.0667 -0.51691,0.199149 -0.13389,0.132426 -0.20082,0.301018 -0.20082,0.506975 0,0.172031 0.0518,0.321428 0.15475,0.447049 0.10201,0.126764 0.26225,0.237655 0.47851,0.335009 z"
       style="fill:#565757;fill-rule:evenodd;stroke-width:0.158866"
       id="path850" />
    <path
       d="m 106.63326,52.247661 a 0.34614147,0.35690233 0 0 1 0.34613,0.356901 0.34614147,0.35690233 0 1 1 -0.34613,-0.356901 z"
       style="fill:#ca0b0b;fill-rule:evenodd;stroke-width:0.158866"
       id="path852" />
    <path
       d="m 111.29102,50.809775 1.02213,-2.970513 h 1.0846 l -1.62859,4.316607 z"
       style="fill:#5f0404;fill-rule:evenodd;stroke-width:0.158866"
       id="path854" />
    <path
       d="m 109.79188,47.839262 h 0.0416 0.40198 l 0.002,0.0038 1.53204,4.312902 -0.29808,0.789867 h -0.21644 -0.22362 l -1.01152,-2.954644 -1.00728,2.954644 h -0.43958 l -0.27603,-0.731098 -0.009,-0.02063 z"
       style="fill:#8a0808;fill-rule:evenodd;stroke-width:0.158866"
       id="path856" />
    <path
       d="m 108.76667,50.809775 -0.47787,1.384794 -1.64421,-4.355307 h 1.08607 z"
       style="fill:#ca0b0b;fill-rule:evenodd;stroke-width:0.158866"
       id="path858" />
    <g
       id="g188"
       transform="matrix(0.15645523,0,0,0.16131906,397.52857,1165.3136)" />
  </g>
</svg>
